<mxfile host="app.diagrams.net" modified="2023-10-08T10:45:23.569Z" agent="Mozilla/5.0 (Macintosh; Intel Mac OS X 10_15_7) AppleWebKit/605.1.15 (KHTML, like Gecko) Version/17.0 Safari/605.1.15" version="22.0.4" etag="IbUwhKuZlezzA-opozRV" type="github">
  <diagram name="Page-1" id="kvVddJow024RuchNI2nA">
    <mxGraphModel>
      <root>
        <mxCell id="0" />
        <mxCell id="1" parent="0" />
      </root>
    </mxGraphModel>
  </diagram>
</mxfile>
